<?xml version="1.0" encoding="UTF-8" standalone="no"?>
<!DOCTYPE svg PUBLIC "-//W3C//DTD SVG 1.1//EN"
 "http://www.w3.org/Graphics/SVG/1.1/DTD/svg11.dtd">
<!-- Generated by graphviz version 2.43.0 (0)
 -->
<!-- Title: structs Pages: 1 -->
<svg width="986pt" height="1046pt"
 viewBox="0.00 0.00 986.00 1046.00" xmlns="http://www.w3.org/2000/svg" xmlns:xlink="http://www.w3.org/1999/xlink">
<g id="graph0" class="graph" transform="scale(1 1) rotate(0) translate(4 1042)">
<title>structs</title>
<polygon fill="white" stroke="transparent" points="-4,4 -4,-1042 982,-1042 982,4 -4,4"/>
<!-- customer -->
<g id="node1" class="node">
<title>customer</title>
<polygon fill="none" stroke="black" points="427.5,-797 427.5,-818 533.5,-818 533.5,-797 427.5,-797"/>
<text text-anchor="start" x="443" y="-804.8" font-family="Times,serif" font-weight="bold" font-size="14.00">customer</text>
<polygon fill="none" stroke="black" points="427.5,-776 427.5,-797 451.5,-797 451.5,-776 427.5,-776"/>
<text text-anchor="start" x="430.5" y="-782.8" font-family="Times,serif" font-size="14.00">🔑</text>
<polygon fill="none" stroke="black" points="451.5,-776 451.5,-797 533.5,-797 533.5,-776 451.5,-776"/>
<text text-anchor="start" x="485.5" y="-782.8" font-family="Times,serif" font-size="14.00">id</text>
<polygon fill="none" stroke="black" points="427.5,-755 427.5,-776 451.5,-776 451.5,-755 427.5,-755"/>
<text text-anchor="start" x="437" y="-761.8" font-family="Times,serif" font-size="14.00"> </text>
<polygon fill="none" stroke="black" points="451.5,-755 451.5,-776 533.5,-776 533.5,-755 451.5,-755"/>
<text text-anchor="start" x="472.5" y="-761.8" font-family="Times,serif" font-size="14.00">email</text>
<polygon fill="none" stroke="black" points="427.5,-734 427.5,-755 451.5,-755 451.5,-734 427.5,-734"/>
<text text-anchor="start" x="437" y="-740.8" font-family="Times,serif" font-size="14.00"> </text>
<polygon fill="none" stroke="black" points="451.5,-734 451.5,-755 533.5,-755 533.5,-734 451.5,-734"/>
<text text-anchor="start" x="454.5" y="-740.8" font-family="Times,serif" font-size="14.00">first_name</text>
<polygon fill="none" stroke="black" points="427.5,-713 427.5,-734 451.5,-734 451.5,-713 427.5,-713"/>
<text text-anchor="start" x="437" y="-719.8" font-family="Times,serif" font-size="14.00"> </text>
<polygon fill="none" stroke="black" points="451.5,-713 451.5,-734 533.5,-734 533.5,-713 451.5,-713"/>
<text text-anchor="start" x="456" y="-719.8" font-family="Times,serif" font-size="14.00">last_name</text>
<polygon fill="none" stroke="black" points="427.5,-692 427.5,-713 451.5,-713 451.5,-692 427.5,-692"/>
<text text-anchor="start" x="437" y="-698.8" font-family="Times,serif" font-size="14.00"> </text>
<polygon fill="none" stroke="black" points="451.5,-692 451.5,-713 533.5,-713 533.5,-692 451.5,-692"/>
<text text-anchor="start" x="454.5" y="-698.8" font-family="Times,serif" font-size="14.00">created_at</text>
</g>
<!-- customer_address -->
<g id="node2" class="node">
<title>customer_address</title>
<polygon fill="none" stroke="black" points="200,-1013 200,-1034 349,-1034 349,-1013 200,-1013"/>
<text text-anchor="start" x="203" y="-1020.8" font-family="Times,serif" font-weight="bold" font-size="14.00">customer_address</text>
<polygon fill="none" stroke="black" points="200,-992 200,-1013 239,-1013 239,-992 200,-992"/>
<text text-anchor="start" x="210.5" y="-998.8" font-family="Times,serif" font-size="14.00">🔑</text>
<polygon fill="none" stroke="black" points="239,-992 239,-1013 349,-1013 349,-992 239,-992"/>
<text text-anchor="start" x="287" y="-998.8" font-family="Times,serif" font-size="14.00">id</text>
<polygon fill="none" stroke="black" points="200,-971 200,-992 239,-992 239,-971 200,-971"/>
<text text-anchor="start" x="217" y="-977.8" font-family="Times,serif" font-size="14.00"> </text>
<polygon fill="none" stroke="black" points="239,-971 239,-992 349,-992 349,-971 239,-971"/>
<text text-anchor="start" x="250" y="-977.8" font-family="Times,serif" font-size="14.00">customer_id</text>
<polygon fill="none" stroke="black" points="200,-950 200,-971 239,-971 239,-950 200,-950"/>
<text text-anchor="start" x="217" y="-956.8" font-family="Times,serif" font-size="14.00"> </text>
<polygon fill="none" stroke="black" points="239,-950 239,-971 349,-971 349,-950 239,-950"/>
<text text-anchor="start" x="261" y="-956.8" font-family="Times,serif" font-size="14.00">address1</text>
<polygon fill="none" stroke="black" points="200,-929 200,-950 239,-950 239,-929 200,-929"/>
<text text-anchor="start" x="217" y="-935.8" font-family="Times,serif" font-size="14.00"> </text>
<polygon fill="none" stroke="black" points="239,-929 239,-950 349,-950 349,-929 239,-929"/>
<text text-anchor="start" x="261" y="-935.8" font-family="Times,serif" font-size="14.00">address2</text>
<polygon fill="none" stroke="black" points="200,-908 200,-929 239,-929 239,-908 200,-908"/>
<text text-anchor="start" x="217" y="-914.8" font-family="Times,serif" font-size="14.00"> </text>
<polygon fill="none" stroke="black" points="239,-908 239,-929 349,-929 349,-908 239,-908"/>
<text text-anchor="start" x="280.5" y="-914.8" font-family="Times,serif" font-size="14.00">city</text>
<polygon fill="none" stroke="black" points="200,-887 200,-908 239,-908 239,-887 200,-887"/>
<text text-anchor="start" x="217" y="-893.8" font-family="Times,serif" font-size="14.00"> </text>
<polygon fill="none" stroke="black" points="239,-887 239,-908 349,-908 349,-887 239,-887"/>
<text text-anchor="start" x="275.5" y="-893.8" font-family="Times,serif" font-size="14.00">state</text>
<polygon fill="none" stroke="black" points="200,-866 200,-887 239,-887 239,-866 200,-866"/>
<text text-anchor="start" x="217" y="-872.8" font-family="Times,serif" font-size="14.00"> </text>
<polygon fill="none" stroke="black" points="239,-866 239,-887 349,-887 349,-866 239,-866"/>
<text text-anchor="start" x="283" y="-872.8" font-family="Times,serif" font-size="14.00">zip</text>
</g>
<!-- customer_address&#45;&gt;customer -->
<g id="edge7" class="edge">
<title>customer_address:e&#45;&gt;customer:w</title>
<path fill="none" stroke="black" d="M350,-982C439.46,-982 341.66,-801.94 416.49,-787.87"/>
<polygon fill="black" stroke="black" points="416.84,-791.35 426.5,-787 416.23,-784.38 416.84,-791.35"/>
</g>
<!-- customer_order -->
<g id="node3" class="node">
<title>customer_order</title>
<polygon fill="none" stroke="black" points="208,-645 208,-666 340,-666 340,-645 208,-645"/>
<text text-anchor="start" x="212" y="-652.8" font-family="Times,serif" font-weight="bold" font-size="14.00">customer_order</text>
<polygon fill="none" stroke="black" points="208,-624 208,-645 232,-645 232,-624 208,-624"/>
<text text-anchor="start" x="211" y="-630.8" font-family="Times,serif" font-size="14.00">🔑</text>
<polygon fill="none" stroke="black" points="232,-624 232,-645 340,-645 340,-624 232,-624"/>
<text text-anchor="start" x="279" y="-630.8" font-family="Times,serif" font-size="14.00">id</text>
<polygon fill="none" stroke="black" points="208,-603 208,-624 232,-624 232,-603 208,-603"/>
<text text-anchor="start" x="217.5" y="-609.8" font-family="Times,serif" font-size="14.00"> </text>
<polygon fill="none" stroke="black" points="232,-603 232,-624 340,-624 340,-603 232,-603"/>
<text text-anchor="start" x="242" y="-609.8" font-family="Times,serif" font-size="14.00">customer_id</text>
<polygon fill="none" stroke="black" points="208,-582 208,-603 232,-603 232,-582 208,-582"/>
<text text-anchor="start" x="217.5" y="-588.8" font-family="Times,serif" font-size="14.00"> </text>
<polygon fill="none" stroke="black" points="232,-582 232,-603 340,-603 340,-582 232,-582"/>
<text text-anchor="start" x="253" y="-588.8" font-family="Times,serif" font-size="14.00">option_id</text>
<polygon fill="none" stroke="black" points="208,-561 208,-582 232,-582 232,-561 208,-561"/>
<text text-anchor="start" x="217.5" y="-567.8" font-family="Times,serif" font-size="14.00"> </text>
<polygon fill="none" stroke="black" points="232,-561 232,-582 340,-582 340,-561 232,-561"/>
<text text-anchor="start" x="235" y="-567.8" font-family="Times,serif" font-size="14.00">order_number</text>
<polygon fill="none" stroke="black" points="208,-540 208,-561 232,-561 232,-540 208,-540"/>
<text text-anchor="start" x="217.5" y="-546.8" font-family="Times,serif" font-size="14.00"> </text>
<polygon fill="none" stroke="black" points="232,-540 232,-561 340,-561 340,-540 232,-540"/>
<text text-anchor="start" x="247" y="-546.8" font-family="Times,serif" font-size="14.00">shipped_at</text>
<polygon fill="none" stroke="black" points="208,-519 208,-540 232,-540 232,-519 208,-519"/>
<text text-anchor="start" x="217.5" y="-525.8" font-family="Times,serif" font-size="14.00"> </text>
<polygon fill="none" stroke="black" points="232,-519 232,-540 340,-540 340,-519 232,-519"/>
<text text-anchor="start" x="248" y="-525.8" font-family="Times,serif" font-size="14.00">created_at</text>
</g>
<!-- customer_order&#45;&gt;customer -->
<g id="edge11" class="edge">
<title>customer_order:e&#45;&gt;customer:w</title>
<path fill="none" stroke="black" d="M341,-614C423.08,-614 347.81,-772.45 416.37,-786.07"/>
<polygon fill="black" stroke="black" points="416.22,-789.57 426.5,-787 416.86,-782.6 416.22,-789.57"/>
</g>
<!-- product_option -->
<g id="node8" class="node">
<title>product_option</title>
<polygon fill="none" stroke="black" points="418.5,-602 418.5,-623 543.5,-623 543.5,-602 418.5,-602"/>
<text text-anchor="start" x="421.5" y="-609.8" font-family="Times,serif" font-weight="bold" font-size="14.00">product_option</text>
<polygon fill="none" stroke="black" points="418.5,-581 418.5,-602 451.5,-602 451.5,-581 418.5,-581"/>
<text text-anchor="start" x="426" y="-587.8" font-family="Times,serif" font-size="14.00">🔑</text>
<polygon fill="none" stroke="black" points="451.5,-581 451.5,-602 543.5,-602 543.5,-581 451.5,-581"/>
<text text-anchor="start" x="490.5" y="-587.8" font-family="Times,serif" font-size="14.00">id</text>
<polygon fill="none" stroke="black" points="418.5,-560 418.5,-581 451.5,-581 451.5,-560 418.5,-560"/>
<text text-anchor="start" x="432.5" y="-566.8" font-family="Times,serif" font-size="14.00"> </text>
<polygon fill="none" stroke="black" points="451.5,-560 451.5,-581 543.5,-581 543.5,-560 451.5,-560"/>
<text text-anchor="start" x="459.5" y="-566.8" font-family="Times,serif" font-size="14.00">product_id</text>
<polygon fill="none" stroke="black" points="418.5,-539 418.5,-560 451.5,-560 451.5,-539 418.5,-539"/>
<text text-anchor="start" x="432.5" y="-545.8" font-family="Times,serif" font-size="14.00"> </text>
<polygon fill="none" stroke="black" points="451.5,-539 451.5,-560 543.5,-560 543.5,-539 451.5,-539"/>
<text text-anchor="start" x="477.5" y="-545.8" font-family="Times,serif" font-size="14.00">name</text>
<polygon fill="none" stroke="black" points="418.5,-518 418.5,-539 451.5,-539 451.5,-518 418.5,-518"/>
<text text-anchor="start" x="432.5" y="-524.8" font-family="Times,serif" font-size="14.00"> </text>
<polygon fill="none" stroke="black" points="451.5,-518 451.5,-539 543.5,-539 543.5,-518 451.5,-518"/>
<text text-anchor="start" x="479" y="-524.8" font-family="Times,serif" font-size="14.00">price</text>
<polygon fill="none" stroke="black" points="418.5,-497 418.5,-518 451.5,-518 451.5,-497 418.5,-497"/>
<text text-anchor="start" x="432.5" y="-503.8" font-family="Times,serif" font-size="14.00"> </text>
<polygon fill="none" stroke="black" points="451.5,-497 451.5,-518 543.5,-518 543.5,-497 451.5,-497"/>
<text text-anchor="start" x="477.5" y="-503.8" font-family="Times,serif" font-size="14.00">notes</text>
<polygon fill="none" stroke="black" points="418.5,-476 418.5,-497 451.5,-497 451.5,-476 418.5,-476"/>
<text text-anchor="start" x="432.5" y="-482.8" font-family="Times,serif" font-size="14.00"> </text>
<polygon fill="none" stroke="black" points="451.5,-476 451.5,-497 543.5,-497 543.5,-476 451.5,-476"/>
<text text-anchor="start" x="464" y="-482.8" font-family="Times,serif" font-size="14.00">sequence</text>
</g>
<!-- customer_order&#45;&gt;product_option -->
<g id="edge10" class="edge">
<title>customer_order:e&#45;&gt;product_option:w</title>
<path fill="none" stroke="black" d="M341,-592C371.28,-592 381.34,-592 407.19,-592"/>
<polygon fill="black" stroke="black" points="407.5,-595.5 417.5,-592 407.5,-588.5 407.5,-595.5"/>
</g>
<!-- product -->
<g id="node4" class="node">
<title>product</title>
<polygon fill="none" stroke="black" points="603,-408 603,-429 767,-429 767,-408 603,-408"/>
<text text-anchor="start" x="654" y="-415.8" font-family="Times,serif" font-weight="bold" font-size="14.00">product</text>
<polygon fill="none" stroke="black" points="603,-387 603,-408 627,-408 627,-387 603,-387"/>
<text text-anchor="start" x="606" y="-393.8" font-family="Times,serif" font-size="14.00">🔑</text>
<polygon fill="none" stroke="black" points="627,-387 627,-408 767,-408 767,-387 627,-387"/>
<text text-anchor="start" x="690" y="-393.8" font-family="Times,serif" font-size="14.00">id</text>
<polygon fill="none" stroke="black" points="603,-366 603,-387 627,-387 627,-366 603,-366"/>
<text text-anchor="start" x="612.5" y="-372.8" font-family="Times,serif" font-size="14.00"> </text>
<polygon fill="none" stroke="black" points="627,-366 627,-387 767,-387 767,-366 627,-366"/>
<text text-anchor="start" x="655.5" y="-372.8" font-family="Times,serif" font-size="14.00">category_id</text>
<polygon fill="none" stroke="black" points="603,-345 603,-366 627,-366 627,-345 603,-345"/>
<text text-anchor="start" x="612.5" y="-351.8" font-family="Times,serif" font-size="14.00"> </text>
<polygon fill="none" stroke="black" points="627,-345 627,-366 767,-366 767,-345 627,-345"/>
<text text-anchor="start" x="652.5" y="-351.8" font-family="Times,serif" font-size="14.00">collection_id</text>
<polygon fill="none" stroke="black" points="603,-324 603,-345 627,-345 627,-324 603,-324"/>
<text text-anchor="start" x="612.5" y="-330.8" font-family="Times,serif" font-size="14.00"> </text>
<polygon fill="none" stroke="black" points="627,-324 627,-345 767,-345 767,-324 627,-324"/>
<text text-anchor="start" x="630" y="-330.8" font-family="Times,serif" font-size="14.00">related_product_id</text>
<polygon fill="none" stroke="black" points="603,-303 603,-324 627,-324 627,-303 603,-303"/>
<text text-anchor="start" x="612.5" y="-309.8" font-family="Times,serif" font-size="14.00"> </text>
<polygon fill="none" stroke="black" points="627,-303 627,-324 767,-324 767,-303 627,-303"/>
<text text-anchor="start" x="677" y="-309.8" font-family="Times,serif" font-size="14.00">name</text>
<polygon fill="none" stroke="black" points="603,-282 603,-303 627,-303 627,-282 603,-282"/>
<text text-anchor="start" x="612.5" y="-288.8" font-family="Times,serif" font-size="14.00"> </text>
<polygon fill="none" stroke="black" points="627,-282 627,-303 767,-303 767,-282 627,-282"/>
<text text-anchor="start" x="656.5" y="-288.8" font-family="Times,serif" font-size="14.00">description</text>
<polygon fill="none" stroke="black" points="603,-261 603,-282 627,-282 627,-261 603,-261"/>
<text text-anchor="start" x="612.5" y="-267.8" font-family="Times,serif" font-size="14.00"> </text>
<polygon fill="none" stroke="black" points="627,-261 627,-282 767,-282 767,-261 627,-261"/>
<text text-anchor="start" x="632.5" y="-267.8" font-family="Times,serif" font-size="14.00">cover_image_path</text>
<polygon fill="none" stroke="black" points="603,-240 603,-261 627,-261 627,-240 603,-240"/>
<text text-anchor="start" x="612.5" y="-246.8" font-family="Times,serif" font-size="14.00"> </text>
<polygon fill="none" stroke="black" points="627,-240 627,-261 767,-261 767,-240 627,-240"/>
<text text-anchor="start" x="656" y="-246.8" font-family="Times,serif" font-size="14.00">cover_price</text>
<polygon fill="none" stroke="black" points="603,-219 603,-240 627,-240 627,-219 603,-219"/>
<text text-anchor="start" x="612.5" y="-225.8" font-family="Times,serif" font-size="14.00"> </text>
<polygon fill="none" stroke="black" points="627,-219 627,-240 767,-240 767,-219 627,-219"/>
<text text-anchor="start" x="657" y="-225.8" font-family="Times,serif" font-size="14.00">is_featured</text>
<polygon fill="none" stroke="black" points="603,-198 603,-219 627,-219 627,-198 603,-198"/>
<text text-anchor="start" x="612.5" y="-204.8" font-family="Times,serif" font-size="14.00"> </text>
<polygon fill="none" stroke="black" points="627,-198 627,-219 767,-219 767,-198 627,-198"/>
<text text-anchor="start" x="678" y="-204.8" font-family="Times,serif" font-size="14.00">stock</text>
<polygon fill="none" stroke="black" points="603,-177 603,-198 627,-198 627,-177 603,-177"/>
<text text-anchor="start" x="612.5" y="-183.8" font-family="Times,serif" font-size="14.00"> </text>
<polygon fill="none" stroke="black" points="627,-177 627,-198 767,-198 767,-177 627,-177"/>
<text text-anchor="start" x="672.5" y="-183.8" font-family="Times,serif" font-size="14.00">is_sold</text>
<polygon fill="none" stroke="black" points="603,-156 603,-177 627,-177 627,-156 603,-156"/>
<text text-anchor="start" x="612.5" y="-162.8" font-family="Times,serif" font-size="14.00"> </text>
<polygon fill="none" stroke="black" points="627,-156 627,-177 767,-177 767,-156 627,-156"/>
<text text-anchor="start" x="663" y="-162.8" font-family="Times,serif" font-size="14.00">is_unique</text>
<polygon fill="none" stroke="black" points="603,-135 603,-156 627,-156 627,-135 603,-135"/>
<text text-anchor="start" x="612.5" y="-141.8" font-family="Times,serif" font-size="14.00"> </text>
<polygon fill="none" stroke="black" points="627,-135 627,-156 767,-156 767,-135 627,-135"/>
<text text-anchor="start" x="654.5" y="-141.8" font-family="Times,serif" font-size="14.00">reserved_at</text>
<polygon fill="none" stroke="black" points="603,-114 603,-135 627,-135 627,-114 603,-114"/>
<text text-anchor="start" x="612.5" y="-120.8" font-family="Times,serif" font-size="14.00"> </text>
<polygon fill="none" stroke="black" points="627,-114 627,-135 767,-135 767,-114 627,-114"/>
<text text-anchor="start" x="659" y="-120.8" font-family="Times,serif" font-size="14.00">created_at</text>
</g>
<!-- product_category -->
<g id="node5" class="node">
<title>product_category</title>
<polygon fill="none" stroke="black" points="823.5,-473 823.5,-494 965.5,-494 965.5,-473 823.5,-473"/>
<text text-anchor="start" x="826.5" y="-480.8" font-family="Times,serif" font-weight="bold" font-size="14.00">product_category</text>
<polygon fill="none" stroke="black" points="823.5,-452 823.5,-473 862.5,-473 862.5,-452 823.5,-452"/>
<text text-anchor="start" x="834" y="-458.8" font-family="Times,serif" font-size="14.00">🔑</text>
<polygon fill="none" stroke="black" points="862.5,-452 862.5,-473 965.5,-473 965.5,-452 862.5,-452"/>
<text text-anchor="start" x="907" y="-458.8" font-family="Times,serif" font-size="14.00">id</text>
<polygon fill="none" stroke="black" points="823.5,-431 823.5,-452 862.5,-452 862.5,-431 823.5,-431"/>
<text text-anchor="start" x="840.5" y="-437.8" font-family="Times,serif" font-size="14.00"> </text>
<polygon fill="none" stroke="black" points="862.5,-431 862.5,-452 965.5,-452 965.5,-431 862.5,-431"/>
<text text-anchor="start" x="897" y="-437.8" font-family="Times,serif" font-size="14.00">code</text>
<polygon fill="none" stroke="black" points="823.5,-410 823.5,-431 862.5,-431 862.5,-410 823.5,-410"/>
<text text-anchor="start" x="840.5" y="-416.8" font-family="Times,serif" font-size="14.00"> </text>
<polygon fill="none" stroke="black" points="862.5,-410 862.5,-431 965.5,-431 965.5,-410 862.5,-410"/>
<text text-anchor="start" x="894" y="-416.8" font-family="Times,serif" font-size="14.00">name</text>
<polygon fill="none" stroke="black" points="823.5,-389 823.5,-410 862.5,-410 862.5,-389 823.5,-389"/>
<text text-anchor="start" x="840.5" y="-395.8" font-family="Times,serif" font-size="14.00"> </text>
<polygon fill="none" stroke="black" points="862.5,-389 862.5,-410 965.5,-410 965.5,-389 862.5,-389"/>
<text text-anchor="start" x="894.5" y="-395.8" font-family="Times,serif" font-size="14.00">route</text>
<polygon fill="none" stroke="black" points="823.5,-368 823.5,-389 862.5,-389 862.5,-368 823.5,-368"/>
<text text-anchor="start" x="840.5" y="-374.8" font-family="Times,serif" font-size="14.00"> </text>
<polygon fill="none" stroke="black" points="862.5,-368 862.5,-389 965.5,-389 965.5,-368 862.5,-368"/>
<text text-anchor="start" x="873.5" y="-374.8" font-family="Times,serif" font-size="14.00">description</text>
<polygon fill="none" stroke="black" points="823.5,-347 823.5,-368 862.5,-368 862.5,-347 823.5,-347"/>
<text text-anchor="start" x="840.5" y="-353.8" font-family="Times,serif" font-size="14.00"> </text>
<polygon fill="none" stroke="black" points="862.5,-347 862.5,-368 965.5,-368 965.5,-347 862.5,-347"/>
<text text-anchor="start" x="883" y="-353.8" font-family="Times,serif" font-size="14.00">is_active</text>
<polygon fill="none" stroke="black" points="823.5,-326 823.5,-347 862.5,-347 862.5,-326 823.5,-326"/>
<text text-anchor="start" x="840.5" y="-332.8" font-family="Times,serif" font-size="14.00"> </text>
<polygon fill="none" stroke="black" points="862.5,-326 862.5,-347 965.5,-347 965.5,-326 862.5,-326"/>
<text text-anchor="start" x="880.5" y="-332.8" font-family="Times,serif" font-size="14.00">sequence</text>
</g>
<!-- product&#45;&gt;product_category -->
<g id="edge3" class="edge">
<title>product:e&#45;&gt;product_category:w</title>
<path fill="none" stroke="black" d="M768,-377C809.36,-377 782.84,-448.85 812.53,-461.2"/>
<polygon fill="black" stroke="black" points="812.04,-464.67 822.5,-463 813.28,-457.78 812.04,-464.67"/>
</g>
<!-- product_collection -->
<g id="node6" class="node">
<title>product_collection</title>
<polygon fill="none" stroke="black" points="819.5,-279 819.5,-300 970.5,-300 970.5,-279 819.5,-279"/>
<text text-anchor="start" x="822.5" y="-286.8" font-family="Times,serif" font-weight="bold" font-size="14.00">product_collection</text>
<polygon fill="none" stroke="black" points="819.5,-258 819.5,-279 863.5,-279 863.5,-258 819.5,-258"/>
<text text-anchor="start" x="832.5" y="-264.8" font-family="Times,serif" font-size="14.00">🔑</text>
<polygon fill="none" stroke="black" points="863.5,-258 863.5,-279 970.5,-279 970.5,-258 863.5,-258"/>
<text text-anchor="start" x="910" y="-264.8" font-family="Times,serif" font-size="14.00">id</text>
<polygon fill="none" stroke="black" points="819.5,-237 819.5,-258 863.5,-258 863.5,-237 819.5,-237"/>
<text text-anchor="start" x="839" y="-243.8" font-family="Times,serif" font-size="14.00"> </text>
<polygon fill="none" stroke="black" points="863.5,-237 863.5,-258 970.5,-258 970.5,-237 863.5,-237"/>
<text text-anchor="start" x="897" y="-243.8" font-family="Times,serif" font-size="14.00">name</text>
<polygon fill="none" stroke="black" points="819.5,-216 819.5,-237 863.5,-237 863.5,-216 819.5,-216"/>
<text text-anchor="start" x="839" y="-222.8" font-family="Times,serif" font-size="14.00"> </text>
<polygon fill="none" stroke="black" points="863.5,-216 863.5,-237 970.5,-237 970.5,-216 863.5,-216"/>
<text text-anchor="start" x="876.5" y="-222.8" font-family="Times,serif" font-size="14.00">description</text>
</g>
<!-- product&#45;&gt;product_collection -->
<g id="edge2" class="edge">
<title>product:e&#45;&gt;product_collection:w</title>
<path fill="none" stroke="black" d="M768,-356C808.69,-356 780.11,-283.93 808.35,-270.98"/>
<polygon fill="black" stroke="black" points="809.36,-274.35 818.5,-269 808.01,-267.48 809.36,-274.35"/>
</g>
<!-- product_image -->
<g id="node7" class="node">
<title>product_image</title>
<polygon fill="none" stroke="black" points="419.5,-429 419.5,-450 542.5,-450 542.5,-429 419.5,-429"/>
<text text-anchor="start" x="422.5" y="-436.8" font-family="Times,serif" font-weight="bold" font-size="14.00">product_image</text>
<polygon fill="none" stroke="black" points="419.5,-408 419.5,-429 443.5,-429 443.5,-408 419.5,-408"/>
<text text-anchor="start" x="422.5" y="-414.8" font-family="Times,serif" font-size="14.00">🔑</text>
<polygon fill="none" stroke="black" points="443.5,-408 443.5,-429 542.5,-429 542.5,-408 443.5,-408"/>
<text text-anchor="start" x="486" y="-414.8" font-family="Times,serif" font-size="14.00">id</text>
<polygon fill="none" stroke="black" points="419.5,-387 419.5,-408 443.5,-408 443.5,-387 419.5,-387"/>
<text text-anchor="start" x="429" y="-393.8" font-family="Times,serif" font-size="14.00"> </text>
<polygon fill="none" stroke="black" points="443.5,-387 443.5,-408 542.5,-408 542.5,-387 443.5,-387"/>
<text text-anchor="start" x="455" y="-393.8" font-family="Times,serif" font-size="14.00">product_id</text>
<polygon fill="none" stroke="black" points="419.5,-366 419.5,-387 443.5,-387 443.5,-366 419.5,-366"/>
<text text-anchor="start" x="429" y="-372.8" font-family="Times,serif" font-size="14.00"> </text>
<polygon fill="none" stroke="black" points="443.5,-366 443.5,-387 542.5,-387 542.5,-366 443.5,-366"/>
<text text-anchor="start" x="476.5" y="-372.8" font-family="Times,serif" font-size="14.00">path</text>
<polygon fill="none" stroke="black" points="419.5,-345 419.5,-366 443.5,-366 443.5,-345 419.5,-345"/>
<text text-anchor="start" x="429" y="-351.8" font-family="Times,serif" font-size="14.00"> </text>
<polygon fill="none" stroke="black" points="443.5,-345 443.5,-366 542.5,-366 542.5,-345 443.5,-345"/>
<text text-anchor="start" x="447" y="-351.8" font-family="Times,serif" font-size="14.00">is_thumbnail</text>
<polygon fill="none" stroke="black" points="419.5,-324 419.5,-345 443.5,-345 443.5,-324 419.5,-324"/>
<text text-anchor="start" x="429" y="-330.8" font-family="Times,serif" font-size="14.00"> </text>
<polygon fill="none" stroke="black" points="443.5,-324 443.5,-345 542.5,-345 542.5,-324 443.5,-324"/>
<text text-anchor="start" x="459.5" y="-330.8" font-family="Times,serif" font-size="14.00">sequence</text>
</g>
<!-- product_image&#45;&gt;product -->
<g id="edge12" class="edge">
<title>product_image:e&#45;&gt;product:w</title>
<path fill="none" stroke="black" d="M543.5,-398C565.64,-398 573.64,-398 591.58,-398"/>
<polygon fill="black" stroke="black" points="592,-401.5 602,-398 592,-394.5 592,-401.5"/>
</g>
<!-- product_option&#45;&gt;product -->
<g id="edge1" class="edge">
<title>product_option:e&#45;&gt;product:w</title>
<path fill="none" stroke="black" d="M544.5,-571C621.73,-571 530.37,-413.84 591.79,-399.1"/>
<polygon fill="black" stroke="black" points="592.43,-402.56 602,-398 591.68,-395.6 592.43,-402.56"/>
</g>
<!-- product_option_item -->
<g id="node9" class="node">
<title>product_option_item</title>
<polygon fill="none" stroke="black" points="190,-408 190,-429 358,-429 358,-408 190,-408"/>
<text text-anchor="start" x="193" y="-415.8" font-family="Times,serif" font-weight="bold" font-size="14.00">product_option_item</text>
<polygon fill="none" stroke="black" points="190,-387 190,-408 245,-408 245,-387 190,-387"/>
<text text-anchor="start" x="208.5" y="-393.8" font-family="Times,serif" font-size="14.00">🔑</text>
<polygon fill="none" stroke="black" points="245,-387 245,-408 358,-408 358,-387 245,-387"/>
<text text-anchor="start" x="294.5" y="-393.8" font-family="Times,serif" font-size="14.00">id</text>
<polygon fill="none" stroke="black" points="190,-366 190,-387 245,-387 245,-366 190,-366"/>
<text text-anchor="start" x="215" y="-372.8" font-family="Times,serif" font-size="14.00"> </text>
<polygon fill="none" stroke="black" points="245,-366 245,-387 358,-387 358,-366 245,-366"/>
<text text-anchor="start" x="268.5" y="-372.8" font-family="Times,serif" font-size="14.00">option_id</text>
<polygon fill="none" stroke="black" points="190,-345 190,-366 245,-366 245,-345 190,-345"/>
<text text-anchor="start" x="215" y="-351.8" font-family="Times,serif" font-size="14.00"> </text>
<polygon fill="none" stroke="black" points="245,-345 245,-366 358,-366 358,-345 245,-345"/>
<text text-anchor="start" x="263.5" y="-351.8" font-family="Times,serif" font-size="14.00">product_id</text>
<polygon fill="none" stroke="black" points="190,-324 190,-345 245,-345 245,-324 190,-324"/>
<text text-anchor="start" x="215" y="-330.8" font-family="Times,serif" font-size="14.00"> </text>
<polygon fill="none" stroke="black" points="245,-324 245,-345 358,-345 358,-324 245,-324"/>
<text text-anchor="start" x="271" y="-330.8" font-family="Times,serif" font-size="14.00">quantity</text>
</g>
<!-- product_option_item&#45;&gt;product -->
<g id="edge4" class="edge">
<title>product_option_item:e&#45;&gt;product:w</title>
<path fill="none" stroke="black" d="M359,-355C386.34,-355 376.8,-321.61 402,-311 466.31,-283.93 499.73,-274.18 559,-311 592.2,-331.63 565.12,-386.32 591.85,-396.39"/>
<polygon fill="black" stroke="black" points="591.58,-399.89 602,-398 592.67,-392.98 591.58,-399.89"/>
</g>
<!-- product_option_item&#45;&gt;product_option -->
<g id="edge5" class="edge">
<title>product_option_item:e&#45;&gt;product_option:w</title>
<path fill="none" stroke="black" d="M359,-376C454.77,-376 328.13,-576.27 407.39,-591.13"/>
<polygon fill="black" stroke="black" points="407.24,-594.63 417.5,-592 407.84,-587.65 407.24,-594.63"/>
</g>
<!-- product_tag -->
<g id="node10" class="node">
<title>product_tag</title>
<polygon fill="none" stroke="black" points="635,-67 635,-88 735,-88 735,-67 635,-67"/>
<text text-anchor="start" x="638" y="-74.8" font-family="Times,serif" font-weight="bold" font-size="14.00">product_tag</text>
<polygon fill="none" stroke="black" points="635,-46 635,-67 674,-67 674,-46 635,-46"/>
<text text-anchor="start" x="645.5" y="-52.8" font-family="Times,serif" font-size="14.00">🔑</text>
<polygon fill="none" stroke="black" points="674,-46 674,-67 735,-67 735,-46 674,-46"/>
<text text-anchor="start" x="697.5" y="-52.8" font-family="Times,serif" font-size="14.00">id</text>
<polygon fill="none" stroke="black" points="635,-25 635,-46 674,-46 674,-25 635,-25"/>
<text text-anchor="start" x="652" y="-31.8" font-family="Times,serif" font-size="14.00"> </text>
<polygon fill="none" stroke="black" points="674,-25 674,-46 735,-46 735,-25 674,-25"/>
<text text-anchor="start" x="687.5" y="-31.8" font-family="Times,serif" font-size="14.00">code</text>
<polygon fill="none" stroke="black" points="635,-4 635,-25 674,-25 674,-4 635,-4"/>
<text text-anchor="start" x="652" y="-10.8" font-family="Times,serif" font-size="14.00"> </text>
<polygon fill="none" stroke="black" points="674,-4 674,-25 735,-25 735,-4 674,-4"/>
<text text-anchor="start" x="684.5" y="-10.8" font-family="Times,serif" font-size="14.00">name</text>
</g>
<!-- product_tag_map -->
<g id="node11" class="node">
<title>product_tag_map</title>
<polygon fill="none" stroke="black" points="410.5,-164 410.5,-185 551.5,-185 551.5,-164 410.5,-164"/>
<text text-anchor="start" x="413.5" y="-171.8" font-family="Times,serif" font-weight="bold" font-size="14.00">product_tag_map</text>
<polygon fill="none" stroke="black" points="410.5,-143 410.5,-164 451.5,-164 451.5,-143 410.5,-143"/>
<text text-anchor="start" x="422" y="-149.8" font-family="Times,serif" font-size="14.00">🔑</text>
<polygon fill="none" stroke="black" points="451.5,-143 451.5,-164 551.5,-164 551.5,-143 451.5,-143"/>
<text text-anchor="start" x="463.5" y="-149.8" font-family="Times,serif" font-size="14.00">product_id</text>
<polygon fill="none" stroke="black" points="410.5,-122 410.5,-143 451.5,-143 451.5,-122 410.5,-122"/>
<text text-anchor="start" x="422" y="-128.8" font-family="Times,serif" font-size="14.00">🔑</text>
<polygon fill="none" stroke="black" points="451.5,-122 451.5,-143 551.5,-143 551.5,-122 451.5,-122"/>
<text text-anchor="start" x="479.5" y="-128.8" font-family="Times,serif" font-size="14.00">tag_id</text>
</g>
<!-- product_tag_map&#45;&gt;product -->
<g id="edge9" class="edge">
<title>product_tag_map:e&#45;&gt;product:w</title>
<path fill="none" stroke="black" d="M552.5,-153C659.9,-153 502.06,-382 591.85,-397.21"/>
<polygon fill="black" stroke="black" points="591.76,-400.71 602,-398 592.3,-393.73 591.76,-400.71"/>
</g>
<!-- product_tag_map&#45;&gt;product_tag -->
<g id="edge8" class="edge">
<title>product_tag_map:e&#45;&gt;product_tag:w</title>
<path fill="none" stroke="black" d="M552.5,-132C597.88,-132 587.02,-68.26 623.61,-58.3"/>
<polygon fill="black" stroke="black" points="624.51,-61.72 634,-57 623.64,-54.77 624.51,-61.72"/>
</g>
<!-- promo_code -->
<g id="node12" class="node">
<title>promo_code</title>
<polygon fill="none" stroke="black" points="8,-839 8,-860 138,-860 138,-839 8,-839"/>
<text text-anchor="start" x="26" y="-846.8" font-family="Times,serif" font-weight="bold" font-size="14.00">promo_code</text>
<polygon fill="none" stroke="black" points="8,-818 8,-839 32,-839 32,-818 8,-818"/>
<text text-anchor="start" x="11" y="-824.8" font-family="Times,serif" font-size="14.00">🔑</text>
<polygon fill="none" stroke="black" points="32,-818 32,-839 138,-839 138,-818 32,-818"/>
<text text-anchor="start" x="78" y="-824.8" font-family="Times,serif" font-size="14.00">id</text>
<polygon fill="none" stroke="black" points="8,-797 8,-818 32,-818 32,-797 8,-797"/>
<text text-anchor="start" x="17.5" y="-803.8" font-family="Times,serif" font-size="14.00"> </text>
<polygon fill="none" stroke="black" points="32,-797 32,-818 138,-818 138,-797 32,-797"/>
<text text-anchor="start" x="47" y="-803.8" font-family="Times,serif" font-size="14.00">referral_id</text>
<polygon fill="none" stroke="black" points="8,-776 8,-797 32,-797 32,-776 8,-776"/>
<text text-anchor="start" x="17.5" y="-782.8" font-family="Times,serif" font-size="14.00"> </text>
<polygon fill="none" stroke="black" points="32,-776 32,-797 138,-797 138,-776 32,-776"/>
<text text-anchor="start" x="68" y="-782.8" font-family="Times,serif" font-size="14.00">code</text>
<polygon fill="none" stroke="black" points="8,-755 8,-776 32,-776 32,-755 8,-755"/>
<text text-anchor="start" x="17.5" y="-761.8" font-family="Times,serif" font-size="14.00"> </text>
<polygon fill="none" stroke="black" points="32,-755 32,-776 138,-776 138,-755 32,-755"/>
<text text-anchor="start" x="54.5" y="-761.8" font-family="Times,serif" font-size="14.00">discount</text>
<polygon fill="none" stroke="black" points="8,-734 8,-755 32,-755 32,-734 8,-734"/>
<text text-anchor="start" x="17.5" y="-740.8" font-family="Times,serif" font-size="14.00"> </text>
<polygon fill="none" stroke="black" points="32,-734 32,-755 138,-755 138,-734 32,-734"/>
<text text-anchor="start" x="35" y="-740.8" font-family="Times,serif" font-size="14.00">min_purchase</text>
<polygon fill="none" stroke="black" points="8,-713 8,-734 32,-734 32,-713 8,-713"/>
<text text-anchor="start" x="17.5" y="-719.8" font-family="Times,serif" font-size="14.00"> </text>
<polygon fill="none" stroke="black" points="32,-713 32,-734 138,-734 138,-713 32,-713"/>
<text text-anchor="start" x="38.5" y="-719.8" font-family="Times,serif" font-size="14.00">redeemed_at</text>
<polygon fill="none" stroke="black" points="8,-692 8,-713 32,-713 32,-692 8,-692"/>
<text text-anchor="start" x="17.5" y="-698.8" font-family="Times,serif" font-size="14.00"> </text>
<polygon fill="none" stroke="black" points="32,-692 32,-713 138,-713 138,-692 32,-692"/>
<text text-anchor="start" x="47" y="-698.8" font-family="Times,serif" font-size="14.00">created_at</text>
</g>
<!-- referral -->
<g id="node13" class="node">
<title>referral</title>
<polygon fill="none" stroke="black" points="215,-818 215,-839 333,-839 333,-818 215,-818"/>
<text text-anchor="start" x="243.5" y="-825.8" font-family="Times,serif" font-weight="bold" font-size="14.00">referral</text>
<polygon fill="none" stroke="black" points="215,-797 215,-818 239,-818 239,-797 215,-797"/>
<text text-anchor="start" x="218" y="-803.8" font-family="Times,serif" font-size="14.00">🔑</text>
<polygon fill="none" stroke="black" points="239,-797 239,-818 333,-818 333,-797 239,-797"/>
<text text-anchor="start" x="279" y="-803.8" font-family="Times,serif" font-size="14.00">id</text>
<polygon fill="none" stroke="black" points="215,-776 215,-797 239,-797 239,-776 215,-776"/>
<text text-anchor="start" x="224.5" y="-782.8" font-family="Times,serif" font-size="14.00"> </text>
<polygon fill="none" stroke="black" points="239,-776 239,-797 333,-797 333,-776 239,-776"/>
<text text-anchor="start" x="242" y="-782.8" font-family="Times,serif" font-size="14.00">customer_id</text>
<polygon fill="none" stroke="black" points="215,-755 215,-776 239,-776 239,-755 215,-755"/>
<text text-anchor="start" x="224.5" y="-761.8" font-family="Times,serif" font-size="14.00"> </text>
<polygon fill="none" stroke="black" points="239,-755 239,-776 333,-776 333,-755 239,-755"/>
<text text-anchor="start" x="269" y="-761.8" font-family="Times,serif" font-size="14.00">code</text>
<polygon fill="none" stroke="black" points="215,-734 215,-755 239,-755 239,-734 215,-734"/>
<text text-anchor="start" x="224.5" y="-740.8" font-family="Times,serif" font-size="14.00"> </text>
<polygon fill="none" stroke="black" points="239,-734 239,-755 333,-755 333,-734 239,-734"/>
<text text-anchor="start" x="255.5" y="-740.8" font-family="Times,serif" font-size="14.00">discount</text>
<polygon fill="none" stroke="black" points="215,-713 215,-734 239,-734 239,-713 215,-713"/>
<text text-anchor="start" x="224.5" y="-719.8" font-family="Times,serif" font-size="14.00"> </text>
<polygon fill="none" stroke="black" points="239,-713 239,-734 333,-734 333,-713 239,-713"/>
<text text-anchor="start" x="258.5" y="-719.8" font-family="Times,serif" font-size="14.00">used_at</text>
<polygon fill="none" stroke="black" points="215,-692 215,-713 239,-713 239,-692 215,-692"/>
<text text-anchor="start" x="224.5" y="-698.8" font-family="Times,serif" font-size="14.00"> </text>
<polygon fill="none" stroke="black" points="239,-692 239,-713 333,-713 333,-692 239,-692"/>
<text text-anchor="start" x="248" y="-698.8" font-family="Times,serif" font-size="14.00">created_at</text>
</g>
<!-- promo_code&#45;&gt;referral -->
<g id="edge6" class="edge">
<title>promo_code:e&#45;&gt;referral:w</title>
<path fill="none" stroke="black" d="M139,-808C168.69,-808 178.54,-808 203.89,-808"/>
<polygon fill="black" stroke="black" points="204,-811.5 214,-808 204,-804.5 204,-811.5"/>
</g>
<!-- referral&#45;&gt;customer -->
<g id="edge13" class="edge">
<title>referral:e&#45;&gt;customer:w</title>
<path fill="none" stroke="black" d="M334,-787C371.42,-787 383.29,-787 416.12,-787"/>
<polygon fill="black" stroke="black" points="416.5,-790.5 426.5,-787 416.5,-783.5 416.5,-790.5"/>
</g>
<!-- social -->
<g id="node14" class="node">
<title>social</title>
<polygon fill="none" stroke="black" points="23,-991 23,-1012 123,-1012 123,-991 23,-991"/>
<text text-anchor="start" x="50" y="-998.8" font-family="Times,serif" font-weight="bold" font-size="14.00">social</text>
<polygon fill="none" stroke="black" points="23,-970 23,-991 47,-991 47,-970 23,-970"/>
<text text-anchor="start" x="26" y="-976.8" font-family="Times,serif" font-size="14.00">🔑</text>
<polygon fill="none" stroke="black" points="47,-970 47,-991 123,-991 123,-970 47,-970"/>
<text text-anchor="start" x="78" y="-976.8" font-family="Times,serif" font-size="14.00">id</text>
<polygon fill="none" stroke="black" points="23,-949 23,-970 47,-970 47,-949 23,-949"/>
<text text-anchor="start" x="32.5" y="-955.8" font-family="Times,serif" font-size="14.00"> </text>
<polygon fill="none" stroke="black" points="47,-949 47,-970 123,-970 123,-949 47,-949"/>
<text text-anchor="start" x="65" y="-955.8" font-family="Times,serif" font-size="14.00">name</text>
<polygon fill="none" stroke="black" points="23,-928 23,-949 47,-949 47,-928 23,-928"/>
<text text-anchor="start" x="32.5" y="-934.8" font-family="Times,serif" font-size="14.00"> </text>
<polygon fill="none" stroke="black" points="47,-928 47,-949 123,-949 123,-928 47,-928"/>
<text text-anchor="start" x="74.5" y="-934.8" font-family="Times,serif" font-size="14.00">url</text>
<polygon fill="none" stroke="black" points="23,-907 23,-928 47,-928 47,-907 23,-907"/>
<text text-anchor="start" x="32.5" y="-913.8" font-family="Times,serif" font-size="14.00"> </text>
<polygon fill="none" stroke="black" points="47,-907 47,-928 123,-928 123,-907 47,-907"/>
<text text-anchor="start" x="50" y="-913.8" font-family="Times,serif" font-size="14.00">logo_path</text>
<polygon fill="none" stroke="black" points="23,-886 23,-907 47,-907 47,-886 23,-886"/>
<text text-anchor="start" x="32.5" y="-892.8" font-family="Times,serif" font-size="14.00"> </text>
<polygon fill="none" stroke="black" points="47,-886 47,-907 123,-907 123,-886 47,-886"/>
<text text-anchor="start" x="54" y="-892.8" font-family="Times,serif" font-size="14.00">is_active</text>
</g>
</g>
</svg>
