<?xml version="1.0" encoding="UTF-8" standalone="no"?>
<!DOCTYPE svg PUBLIC "-//W3C//DTD SVG 1.1//EN"
 "http://www.w3.org/Graphics/SVG/1.1/DTD/svg11.dtd">
<!-- Generated by graphviz version 2.43.0 (0)
 -->
<!-- Title: structs Pages: 1 -->
<svg width="797pt" height="810pt"
 viewBox="0.00 0.00 797.00 810.00" xmlns="http://www.w3.org/2000/svg" xmlns:xlink="http://www.w3.org/1999/xlink">
<g id="graph0" class="graph" transform="scale(1 1) rotate(0) translate(4 806)">
<title>structs</title>
<polygon fill="white" stroke="transparent" points="-4,4 -4,-806 793,-806 793,4 -4,4"/>
<!-- customer -->
<g id="node1" class="node">
<title>customer</title>
<polygon fill="none" stroke="black" points="239,-714 239,-735 341,-735 341,-714 239,-714"/>
<text text-anchor="start" x="252.5" y="-721.8" font-family="Times,serif" font-weight="bold" font-size="14.00">customer</text>
<polygon fill="none" stroke="black" points="239,-693 239,-714 263,-714 263,-693 239,-693"/>
<text text-anchor="start" x="242" y="-699.8" font-family="Times,serif" font-size="14.00">🔑</text>
<polygon fill="none" stroke="black" points="263,-693 263,-714 341,-714 341,-693 263,-693"/>
<text text-anchor="start" x="295" y="-699.8" font-family="Times,serif" font-size="14.00">id</text>
<polygon fill="none" stroke="black" points="239,-672 239,-693 263,-693 263,-672 239,-672"/>
<text text-anchor="start" x="248.5" y="-678.8" font-family="Times,serif" font-size="14.00"> </text>
<polygon fill="none" stroke="black" points="263,-672 263,-693 341,-693 341,-672 263,-672"/>
<text text-anchor="start" x="282" y="-678.8" font-family="Times,serif" font-size="14.00">email</text>
<polygon fill="none" stroke="black" points="239,-651 239,-672 263,-672 263,-651 239,-651"/>
<text text-anchor="start" x="248.5" y="-657.8" font-family="Times,serif" font-size="14.00"> </text>
<polygon fill="none" stroke="black" points="263,-651 263,-672 341,-672 341,-651 263,-651"/>
<text text-anchor="start" x="266" y="-657.8" font-family="Times,serif" font-size="14.00">firstName</text>
<polygon fill="none" stroke="black" points="239,-630 239,-651 263,-651 263,-630 239,-630"/>
<text text-anchor="start" x="248.5" y="-636.8" font-family="Times,serif" font-size="14.00"> </text>
<polygon fill="none" stroke="black" points="263,-630 263,-651 341,-651 341,-630 263,-630"/>
<text text-anchor="start" x="267.5" y="-636.8" font-family="Times,serif" font-size="14.00">lastName</text>
<polygon fill="none" stroke="black" points="239,-609 239,-630 263,-630 263,-609 239,-609"/>
<text text-anchor="start" x="248.5" y="-615.8" font-family="Times,serif" font-size="14.00"> </text>
<polygon fill="none" stroke="black" points="263,-609 263,-630 341,-630 341,-609 263,-609"/>
<text text-anchor="start" x="274.5" y="-615.8" font-family="Times,serif" font-size="14.00">created</text>
</g>
<!-- customerAddress -->
<g id="node2" class="node">
<title>customerAddress</title>
<polygon fill="none" stroke="black" points="10,-777 10,-798 154,-798 154,-777 10,-777"/>
<text text-anchor="start" x="13" y="-784.8" font-family="Times,serif" font-weight="bold" font-size="14.00">customerAddress</text>
<polygon fill="none" stroke="black" points="10,-756 10,-777 50,-777 50,-756 10,-756"/>
<text text-anchor="start" x="21" y="-762.8" font-family="Times,serif" font-size="14.00">🔑</text>
<polygon fill="none" stroke="black" points="50,-756 50,-777 154,-777 154,-756 50,-756"/>
<text text-anchor="start" x="95" y="-762.8" font-family="Times,serif" font-size="14.00">id</text>
<polygon fill="none" stroke="black" points="10,-735 10,-756 50,-756 50,-735 10,-735"/>
<text text-anchor="start" x="27.5" y="-741.8" font-family="Times,serif" font-size="14.00"> </text>
<polygon fill="none" stroke="black" points="50,-735 50,-756 154,-756 154,-735 50,-735"/>
<text text-anchor="start" x="61" y="-741.8" font-family="Times,serif" font-size="14.00">customerId</text>
<polygon fill="none" stroke="black" points="10,-714 10,-735 50,-735 50,-714 10,-714"/>
<text text-anchor="start" x="27.5" y="-720.8" font-family="Times,serif" font-size="14.00"> </text>
<polygon fill="none" stroke="black" points="50,-714 50,-735 154,-735 154,-714 50,-714"/>
<text text-anchor="start" x="69" y="-720.8" font-family="Times,serif" font-size="14.00">address1</text>
<polygon fill="none" stroke="black" points="10,-693 10,-714 50,-714 50,-693 10,-693"/>
<text text-anchor="start" x="27.5" y="-699.8" font-family="Times,serif" font-size="14.00"> </text>
<polygon fill="none" stroke="black" points="50,-693 50,-714 154,-714 154,-693 50,-693"/>
<text text-anchor="start" x="69" y="-699.8" font-family="Times,serif" font-size="14.00">address2</text>
<polygon fill="none" stroke="black" points="10,-672 10,-693 50,-693 50,-672 10,-672"/>
<text text-anchor="start" x="27.5" y="-678.8" font-family="Times,serif" font-size="14.00"> </text>
<polygon fill="none" stroke="black" points="50,-672 50,-693 154,-693 154,-672 50,-672"/>
<text text-anchor="start" x="88.5" y="-678.8" font-family="Times,serif" font-size="14.00">city</text>
<polygon fill="none" stroke="black" points="10,-651 10,-672 50,-672 50,-651 10,-651"/>
<text text-anchor="start" x="27.5" y="-657.8" font-family="Times,serif" font-size="14.00"> </text>
<polygon fill="none" stroke="black" points="50,-651 50,-672 154,-672 154,-651 50,-651"/>
<text text-anchor="start" x="83.5" y="-657.8" font-family="Times,serif" font-size="14.00">state</text>
<polygon fill="none" stroke="black" points="10,-630 10,-651 50,-651 50,-630 10,-630"/>
<text text-anchor="start" x="27.5" y="-636.8" font-family="Times,serif" font-size="14.00"> </text>
<polygon fill="none" stroke="black" points="50,-630 50,-651 154,-651 154,-630 50,-630"/>
<text text-anchor="start" x="91" y="-636.8" font-family="Times,serif" font-size="14.00">zip</text>
</g>
<!-- customerAddress&#45;&gt;customer -->
<g id="edge7" class="edge">
<title>customerAddress:e&#45;&gt;customer:w</title>
<path fill="none" stroke="black" d="M155,-746C192.63,-746 196.27,-711.21 227.79,-704.96"/>
<polygon fill="black" stroke="black" points="228.37,-708.42 238,-704 227.72,-701.45 228.37,-708.42"/>
</g>
<!-- customerOrder -->
<g id="node3" class="node">
<title>customerOrder</title>
<polygon fill="none" stroke="black" points="8,-582 8,-603 156,-603 156,-582 8,-582"/>
<text text-anchor="start" x="21.5" y="-589.8" font-family="Times,serif" font-weight="bold" font-size="14.00">customerOrder</text>
<polygon fill="none" stroke="black" points="8,-561 8,-582 32,-582 32,-561 8,-561"/>
<text text-anchor="start" x="11" y="-567.8" font-family="Times,serif" font-size="14.00">🔑</text>
<polygon fill="none" stroke="black" points="32,-561 32,-582 156,-582 156,-561 32,-561"/>
<text text-anchor="start" x="87" y="-567.8" font-family="Times,serif" font-size="14.00">id</text>
<polygon fill="none" stroke="black" points="8,-540 8,-561 32,-561 32,-540 8,-540"/>
<text text-anchor="start" x="17.5" y="-546.8" font-family="Times,serif" font-size="14.00"> </text>
<polygon fill="none" stroke="black" points="32,-540 32,-561 156,-561 156,-540 32,-540"/>
<text text-anchor="start" x="53" y="-546.8" font-family="Times,serif" font-size="14.00">customerId</text>
<polygon fill="none" stroke="black" points="8,-519 8,-540 32,-540 32,-519 8,-519"/>
<text text-anchor="start" x="17.5" y="-525.8" font-family="Times,serif" font-size="14.00"> </text>
<polygon fill="none" stroke="black" points="32,-519 32,-540 156,-540 156,-519 32,-519"/>
<text text-anchor="start" x="45" y="-525.8" font-family="Times,serif" font-size="14.00">orderNumber</text>
<polygon fill="none" stroke="black" points="8,-498 8,-519 32,-519 32,-498 8,-498"/>
<text text-anchor="start" x="17.5" y="-504.8" font-family="Times,serif" font-size="14.00"> </text>
<polygon fill="none" stroke="black" points="32,-498 32,-519 156,-519 156,-498 32,-498"/>
<text text-anchor="start" x="35" y="-504.8" font-family="Times,serif" font-size="14.00">productOptionId</text>
</g>
<!-- customerOrder&#45;&gt;customer -->
<g id="edge4" class="edge">
<title>customerOrder:e&#45;&gt;customer:w</title>
<path fill="none" stroke="black" d="M157,-550C230.56,-550 167.5,-689.33 227.72,-702.93"/>
<polygon fill="black" stroke="black" points="227.69,-706.45 238,-704 228.41,-699.49 227.69,-706.45"/>
</g>
<!-- productOption -->
<g id="node7" class="node">
<title>productOption</title>
<polygon fill="none" stroke="black" points="230,-518 230,-539 351,-539 351,-518 230,-518"/>
<text text-anchor="start" x="233" y="-525.8" font-family="Times,serif" font-weight="bold" font-size="14.00">productOption</text>
<polygon fill="none" stroke="black" points="230,-497 230,-518 264,-518 264,-497 230,-497"/>
<text text-anchor="start" x="238" y="-503.8" font-family="Times,serif" font-size="14.00">🔑</text>
<polygon fill="none" stroke="black" points="264,-497 264,-518 351,-518 351,-497 264,-497"/>
<text text-anchor="start" x="300.5" y="-503.8" font-family="Times,serif" font-size="14.00">id</text>
<polygon fill="none" stroke="black" points="230,-476 230,-497 264,-497 264,-476 230,-476"/>
<text text-anchor="start" x="244.5" y="-482.8" font-family="Times,serif" font-size="14.00"> </text>
<polygon fill="none" stroke="black" points="264,-476 264,-497 351,-497 351,-476 264,-476"/>
<text text-anchor="start" x="272.5" y="-482.8" font-family="Times,serif" font-size="14.00">productId</text>
<polygon fill="none" stroke="black" points="230,-455 230,-476 264,-476 264,-455 230,-455"/>
<text text-anchor="start" x="244.5" y="-461.8" font-family="Times,serif" font-size="14.00"> </text>
<polygon fill="none" stroke="black" points="264,-455 264,-476 351,-476 351,-455 264,-455"/>
<text text-anchor="start" x="287.5" y="-461.8" font-family="Times,serif" font-size="14.00">name</text>
<polygon fill="none" stroke="black" points="230,-434 230,-455 264,-455 264,-434 230,-434"/>
<text text-anchor="start" x="244.5" y="-440.8" font-family="Times,serif" font-size="14.00"> </text>
<polygon fill="none" stroke="black" points="264,-434 264,-455 351,-455 351,-434 264,-434"/>
<text text-anchor="start" x="289" y="-440.8" font-family="Times,serif" font-size="14.00">price</text>
<polygon fill="none" stroke="black" points="230,-413 230,-434 264,-434 264,-413 230,-413"/>
<text text-anchor="start" x="244.5" y="-419.8" font-family="Times,serif" font-size="14.00"> </text>
<polygon fill="none" stroke="black" points="264,-413 264,-434 351,-434 351,-413 264,-413"/>
<text text-anchor="start" x="287.5" y="-419.8" font-family="Times,serif" font-size="14.00">notes</text>
<polygon fill="none" stroke="black" points="230,-392 230,-413 264,-413 264,-392 230,-392"/>
<text text-anchor="start" x="244.5" y="-398.8" font-family="Times,serif" font-size="14.00"> </text>
<polygon fill="none" stroke="black" points="264,-392 264,-413 351,-413 351,-392 264,-392"/>
<text text-anchor="start" x="272.5" y="-398.8" font-family="Times,serif" font-size="14.00">hasChonk</text>
<polygon fill="none" stroke="black" points="230,-371 230,-392 264,-392 264,-371 230,-371"/>
<text text-anchor="start" x="244.5" y="-377.8" font-family="Times,serif" font-size="14.00"> </text>
<polygon fill="none" stroke="black" points="264,-371 264,-392 351,-392 351,-371 264,-371"/>
<text text-anchor="start" x="285.5" y="-377.8" font-family="Times,serif" font-size="14.00">isSold</text>
<polygon fill="none" stroke="black" points="230,-350 230,-371 264,-371 264,-350 230,-350"/>
<text text-anchor="start" x="244.5" y="-356.8" font-family="Times,serif" font-size="14.00"> </text>
<polygon fill="none" stroke="black" points="264,-350 264,-371 351,-371 351,-350 264,-350"/>
<text text-anchor="start" x="274" y="-356.8" font-family="Times,serif" font-size="14.00">sequence</text>
</g>
<!-- customerOrder&#45;&gt;productOption -->
<g id="edge3" class="edge">
<title>customerOrder:e&#45;&gt;productOption:w</title>
<path fill="none" stroke="black" d="M157,-508C185.38,-508 194.88,-508 218.98,-508"/>
<polygon fill="black" stroke="black" points="219,-511.5 229,-508 219,-504.5 219,-511.5"/>
</g>
<!-- product -->
<g id="node4" class="node">
<title>product</title>
<polygon fill="none" stroke="black" points="424,-303 424,-324 590,-324 590,-303 424,-303"/>
<text text-anchor="start" x="476" y="-310.8" font-family="Times,serif" font-weight="bold" font-size="14.00">product</text>
<polygon fill="none" stroke="black" points="424,-282 424,-303 448,-303 448,-282 424,-282"/>
<text text-anchor="start" x="427" y="-288.8" font-family="Times,serif" font-size="14.00">🔑</text>
<polygon fill="none" stroke="black" points="448,-282 448,-303 590,-303 590,-282 448,-282"/>
<text text-anchor="start" x="512" y="-288.8" font-family="Times,serif" font-size="14.00">id</text>
<polygon fill="none" stroke="black" points="424,-261 424,-282 448,-282 448,-261 424,-261"/>
<text text-anchor="start" x="433.5" y="-267.8" font-family="Times,serif" font-size="14.00"> </text>
<polygon fill="none" stroke="black" points="448,-261 448,-282 590,-282 590,-261 448,-261"/>
<text text-anchor="start" x="451" y="-267.8" font-family="Times,serif" font-size="14.00">productCategoryId</text>
<polygon fill="none" stroke="black" points="424,-240 424,-261 448,-261 448,-240 424,-240"/>
<text text-anchor="start" x="433.5" y="-246.8" font-family="Times,serif" font-size="14.00"> </text>
<polygon fill="none" stroke="black" points="448,-240 448,-261 590,-261 590,-240 448,-240"/>
<text text-anchor="start" x="499" y="-246.8" font-family="Times,serif" font-size="14.00">name</text>
<polygon fill="none" stroke="black" points="424,-219 424,-240 448,-240 448,-219 424,-219"/>
<text text-anchor="start" x="433.5" y="-225.8" font-family="Times,serif" font-size="14.00"> </text>
<polygon fill="none" stroke="black" points="448,-219 448,-240 590,-240 590,-219 448,-219"/>
<text text-anchor="start" x="478.5" y="-225.8" font-family="Times,serif" font-size="14.00">description</text>
<polygon fill="none" stroke="black" points="424,-198 424,-219 448,-219 448,-198 424,-198"/>
<text text-anchor="start" x="433.5" y="-204.8" font-family="Times,serif" font-size="14.00"> </text>
<polygon fill="none" stroke="black" points="448,-198 448,-219 590,-219 590,-198 448,-198"/>
<text text-anchor="start" x="461" y="-204.8" font-family="Times,serif" font-size="14.00">coverImagePath</text>
<polygon fill="none" stroke="black" points="424,-177 424,-198 448,-198 448,-177 424,-177"/>
<text text-anchor="start" x="433.5" y="-183.8" font-family="Times,serif" font-size="14.00"> </text>
<polygon fill="none" stroke="black" points="448,-177 448,-198 590,-198 590,-177 448,-177"/>
<text text-anchor="start" x="481" y="-183.8" font-family="Times,serif" font-size="14.00">coverPrice</text>
<polygon fill="none" stroke="black" points="424,-156 424,-177 448,-177 448,-156 424,-156"/>
<text text-anchor="start" x="433.5" y="-162.8" font-family="Times,serif" font-size="14.00"> </text>
<polygon fill="none" stroke="black" points="448,-156 448,-177 590,-177 590,-156 448,-156"/>
<text text-anchor="start" x="480.5" y="-162.8" font-family="Times,serif" font-size="14.00">isFeatured</text>
<polygon fill="none" stroke="black" points="424,-135 424,-156 448,-156 448,-135 424,-135"/>
<text text-anchor="start" x="433.5" y="-141.8" font-family="Times,serif" font-size="14.00"> </text>
<polygon fill="none" stroke="black" points="448,-135 448,-156 590,-156 590,-135 448,-135"/>
<text text-anchor="start" x="497" y="-141.8" font-family="Times,serif" font-size="14.00">isSold</text>
<polygon fill="none" stroke="black" points="424,-114 424,-135 448,-135 448,-114 424,-114"/>
<text text-anchor="start" x="433.5" y="-120.8" font-family="Times,serif" font-size="14.00"> </text>
<polygon fill="none" stroke="black" points="448,-114 448,-135 590,-135 590,-114 448,-114"/>
<text text-anchor="start" x="491.5" y="-120.8" font-family="Times,serif" font-size="14.00">created</text>
</g>
<!-- productCategory -->
<g id="node5" class="node">
<title>productCategory</title>
<polygon fill="none" stroke="black" points="642.5,-282 642.5,-303 781.5,-303 781.5,-282 642.5,-282"/>
<text text-anchor="start" x="645.5" y="-289.8" font-family="Times,serif" font-weight="bold" font-size="14.00">productCategory</text>
<polygon fill="none" stroke="black" points="642.5,-261 642.5,-282 680.5,-282 680.5,-261 642.5,-261"/>
<text text-anchor="start" x="652.5" y="-267.8" font-family="Times,serif" font-size="14.00">🔑</text>
<polygon fill="none" stroke="black" points="680.5,-261 680.5,-282 781.5,-282 781.5,-261 680.5,-261"/>
<text text-anchor="start" x="724" y="-267.8" font-family="Times,serif" font-size="14.00">id</text>
<polygon fill="none" stroke="black" points="642.5,-240 642.5,-261 680.5,-261 680.5,-240 642.5,-240"/>
<text text-anchor="start" x="659" y="-246.8" font-family="Times,serif" font-size="14.00"> </text>
<polygon fill="none" stroke="black" points="680.5,-240 680.5,-261 781.5,-261 781.5,-240 680.5,-240"/>
<text text-anchor="start" x="711.5" y="-246.8" font-family="Times,serif" font-size="14.00">route</text>
<polygon fill="none" stroke="black" points="642.5,-219 642.5,-240 680.5,-240 680.5,-219 642.5,-219"/>
<text text-anchor="start" x="659" y="-225.8" font-family="Times,serif" font-size="14.00"> </text>
<polygon fill="none" stroke="black" points="680.5,-219 680.5,-240 781.5,-240 781.5,-219 680.5,-219"/>
<text text-anchor="start" x="711" y="-225.8" font-family="Times,serif" font-size="14.00">name</text>
<polygon fill="none" stroke="black" points="642.5,-198 642.5,-219 680.5,-219 680.5,-198 642.5,-198"/>
<text text-anchor="start" x="659" y="-204.8" font-family="Times,serif" font-size="14.00"> </text>
<polygon fill="none" stroke="black" points="680.5,-198 680.5,-219 781.5,-219 781.5,-198 680.5,-198"/>
<text text-anchor="start" x="690.5" y="-204.8" font-family="Times,serif" font-size="14.00">description</text>
<polygon fill="none" stroke="black" points="642.5,-177 642.5,-198 680.5,-198 680.5,-177 642.5,-177"/>
<text text-anchor="start" x="659" y="-183.8" font-family="Times,serif" font-size="14.00"> </text>
<polygon fill="none" stroke="black" points="680.5,-177 680.5,-198 781.5,-198 781.5,-177 680.5,-177"/>
<text text-anchor="start" x="702.5" y="-183.8" font-family="Times,serif" font-size="14.00">isActive</text>
<polygon fill="none" stroke="black" points="642.5,-156 642.5,-177 680.5,-177 680.5,-156 642.5,-156"/>
<text text-anchor="start" x="659" y="-162.8" font-family="Times,serif" font-size="14.00"> </text>
<polygon fill="none" stroke="black" points="680.5,-156 680.5,-177 781.5,-177 781.5,-156 680.5,-156"/>
<text text-anchor="start" x="697.5" y="-162.8" font-family="Times,serif" font-size="14.00">sequence</text>
</g>
<!-- product&#45;&gt;productCategory -->
<g id="edge6" class="edge">
<title>product:e&#45;&gt;productCategory:w</title>
<path fill="none" stroke="black" d="M591,-272C609.59,-272 616.63,-272 631.25,-272"/>
<polygon fill="black" stroke="black" points="631.5,-275.5 641.5,-272 631.5,-268.5 631.5,-275.5"/>
</g>
<!-- productImage -->
<g id="node6" class="node">
<title>productImage</title>
<polygon fill="none" stroke="black" points="231,-303 231,-324 349,-324 349,-303 231,-303"/>
<text text-anchor="start" x="234" y="-310.8" font-family="Times,serif" font-weight="bold" font-size="14.00">productImage</text>
<polygon fill="none" stroke="black" points="231,-282 231,-303 255,-303 255,-282 231,-282"/>
<text text-anchor="start" x="234" y="-288.8" font-family="Times,serif" font-size="14.00">🔑</text>
<polygon fill="none" stroke="black" points="255,-282 255,-303 349,-303 349,-282 255,-282"/>
<text text-anchor="start" x="295" y="-288.8" font-family="Times,serif" font-size="14.00">id</text>
<polygon fill="none" stroke="black" points="231,-261 231,-282 255,-282 255,-261 231,-261"/>
<text text-anchor="start" x="240.5" y="-267.8" font-family="Times,serif" font-size="14.00"> </text>
<polygon fill="none" stroke="black" points="255,-261 255,-282 349,-282 349,-261 255,-261"/>
<text text-anchor="start" x="267" y="-267.8" font-family="Times,serif" font-size="14.00">productId</text>
<polygon fill="none" stroke="black" points="231,-240 231,-261 255,-261 255,-240 231,-240"/>
<text text-anchor="start" x="240.5" y="-246.8" font-family="Times,serif" font-size="14.00"> </text>
<polygon fill="none" stroke="black" points="255,-240 255,-261 349,-261 349,-240 255,-240"/>
<text text-anchor="start" x="285.5" y="-246.8" font-family="Times,serif" font-size="14.00">path</text>
<polygon fill="none" stroke="black" points="231,-219 231,-240 255,-240 255,-219 231,-219"/>
<text text-anchor="start" x="240.5" y="-225.8" font-family="Times,serif" font-size="14.00"> </text>
<polygon fill="none" stroke="black" points="255,-219 255,-240 349,-240 349,-219 255,-219"/>
<text text-anchor="start" x="258" y="-225.8" font-family="Times,serif" font-size="14.00">isThumbnail</text>
<polygon fill="none" stroke="black" points="231,-198 231,-219 255,-219 255,-198 231,-198"/>
<text text-anchor="start" x="240.5" y="-204.8" font-family="Times,serif" font-size="14.00"> </text>
<polygon fill="none" stroke="black" points="255,-198 255,-219 349,-219 349,-198 255,-198"/>
<text text-anchor="start" x="268.5" y="-204.8" font-family="Times,serif" font-size="14.00">sequence</text>
</g>
<!-- productImage&#45;&gt;product -->
<g id="edge8" class="edge">
<title>productImage:e&#45;&gt;product:w</title>
<path fill="none" stroke="black" d="M350,-272C380.07,-272 387.7,-288.66 412.86,-292.3"/>
<polygon fill="black" stroke="black" points="412.78,-295.8 423,-293 413.26,-288.82 412.78,-295.8"/>
</g>
<!-- productOption&#45;&gt;product -->
<g id="edge5" class="edge">
<title>productOption:e&#45;&gt;product:w</title>
<path fill="none" stroke="black" d="M352,-487C440.05,-487 340.08,-308.59 412.71,-293.95"/>
<polygon fill="black" stroke="black" points="413.36,-297.41 423,-293 412.72,-290.44 413.36,-297.41"/>
</g>
<!-- productTag -->
<g id="node8" class="node">
<title>productTag</title>
<polygon fill="none" stroke="black" points="459,-67 459,-88 555,-88 555,-67 459,-67"/>
<text text-anchor="start" x="462" y="-74.8" font-family="Times,serif" font-weight="bold" font-size="14.00">productTag</text>
<polygon fill="none" stroke="black" points="459,-46 459,-67 496,-67 496,-46 459,-46"/>
<text text-anchor="start" x="468.5" y="-52.8" font-family="Times,serif" font-size="14.00">🔑</text>
<polygon fill="none" stroke="black" points="496,-46 496,-67 555,-67 555,-46 496,-46"/>
<text text-anchor="start" x="518.5" y="-52.8" font-family="Times,serif" font-size="14.00">id</text>
<polygon fill="none" stroke="black" points="459,-25 459,-46 496,-46 496,-25 459,-25"/>
<text text-anchor="start" x="475" y="-31.8" font-family="Times,serif" font-size="14.00"> </text>
<polygon fill="none" stroke="black" points="496,-25 496,-46 555,-46 555,-25 496,-25"/>
<text text-anchor="start" x="508.5" y="-31.8" font-family="Times,serif" font-size="14.00">code</text>
<polygon fill="none" stroke="black" points="459,-4 459,-25 496,-25 496,-4 459,-4"/>
<text text-anchor="start" x="475" y="-10.8" font-family="Times,serif" font-size="14.00"> </text>
<polygon fill="none" stroke="black" points="496,-4 496,-25 555,-25 555,-4 496,-4"/>
<text text-anchor="start" x="505.5" y="-10.8" font-family="Times,serif" font-size="14.00">name</text>
</g>
<!-- product_productTag -->
<g id="node9" class="node">
<title>product_productTag</title>
<polygon fill="none" stroke="black" points="208,-109 208,-130 372,-130 372,-109 208,-109"/>
<text text-anchor="start" x="211" y="-116.8" font-family="Times,serif" font-weight="bold" font-size="14.00">product_productTag</text>
<polygon fill="none" stroke="black" points="208,-88 208,-109 264,-109 264,-88 208,-88"/>
<text text-anchor="start" x="227" y="-94.8" font-family="Times,serif" font-size="14.00">🔑</text>
<polygon fill="none" stroke="black" points="264,-88 264,-109 372,-109 372,-88 264,-88"/>
<text text-anchor="start" x="283" y="-94.8" font-family="Times,serif" font-size="14.00">productId</text>
<polygon fill="none" stroke="black" points="208,-67 208,-88 264,-88 264,-67 208,-67"/>
<text text-anchor="start" x="227" y="-73.8" font-family="Times,serif" font-size="14.00">🔑</text>
<polygon fill="none" stroke="black" points="264,-67 264,-88 372,-88 372,-67 264,-67"/>
<text text-anchor="start" x="299" y="-73.8" font-family="Times,serif" font-size="14.00">tagId</text>
</g>
<!-- product_productTag&#45;&gt;product -->
<g id="edge2" class="edge">
<title>product_productTag:e&#45;&gt;product:w</title>
<path fill="none" stroke="black" d="M373,-98C458.63,-98 344.21,-276.6 412.64,-291.95"/>
<polygon fill="black" stroke="black" points="412.7,-295.47 423,-293 413.4,-288.51 412.7,-295.47"/>
</g>
<!-- product_productTag&#45;&gt;productTag -->
<g id="edge1" class="edge">
<title>product_productTag:e&#45;&gt;productTag:w</title>
<path fill="none" stroke="black" d="M373,-77C408.17,-77 417.53,-60.57 447.86,-57.49"/>
<polygon fill="black" stroke="black" points="448.18,-60.98 458,-57 447.84,-53.99 448.18,-60.98"/>
</g>
</g>
</svg>
